<svg id="Layer_1" data-name="Layer 1" xmlns="http://www.w3.org/2000/svg" viewBox="0 0 266.3 287.4"><defs><style>.cls-1,.cls-3,.cls-4,.cls-5{fill:none;}.cls-1,.cls-3,.cls-4,.cls-5,.cls-6{stroke:#fff;stroke-miterlimit:10;}.cls-1{stroke-width:8px;}.cls-2,.cls-6{fill:#fff;}.cls-3{stroke-width:7px;}.cls-4{stroke-width:5px;}.cls-5{stroke-width:4px;}.cls-6{stroke-width:2px;}</style></defs><title>takeMeAnywhere2</title><path class="cls-1" d="M230.92,100.94V280.81H20.76V100.94C20.76,51.28,67.8,11,125.84,11S230.92,51.28,230.92,100.94Z" transform="translate(-16.76 -7.01)"/><path class="cls-2" d="M68.3,200.22c-0.83.28-1.64,0.53-2.43,0.85a1,1,0,0,1-1.31-.23c-0.21.52-.5,0.68-0.75,0.38l-2,1.05-0.64-.76v1.21l-2.06-1.09,0.71,1.51c-0.76.11-1.18,1.22-2.32,0.26,0.56,1.22-.26,1.52-0.84,2l-2.75,2.18c-0.21.17-.44,0.31-0.67,0.47L53,208c0.12-1,.18-2,0.36-2.95a9.21,9.21,0,0,1,6.91-7.33,19.18,19.18,0,0,1,6.7.22c-0.38-.84-1.57-0.78-1.91-1.68-0.58.19-.75,0.07-0.71-0.73-0.36.24-.77,0.5-0.77-0.14H59.83c-0.35.57-.59,0.61-1,0.05-0.45.77-.83,1-2.89,1.48A13.27,13.27,0,0,1,57,195.34a20.22,20.22,0,0,1,2.73-2.52,4.94,4.94,0,0,1,4.68-.26,9.12,9.12,0,0,1,4.39,3.16,1.54,1.54,0,0,0,.21.22,2.34,2.34,0,0,0,.37.15c-0.41-.86-0.69-1.57-1.09-2.21s-0.93-1.24-1.4-1.86c1.26-1.52,6.31-.7,7.47,1.31l-2.75,3c1.25-.45,2.32-0.87,3.41-1.22a3.78,3.78,0,0,1,3,.29,8.45,8.45,0,0,1,3.73,3.68,24.5,24.5,0,0,1,1.2,2.45L81.06,200c-1,.42-0.79-0.74-1.12-1.32a1.32,1.32,0,0,1-2.1-.32c-0.79.54-1.62,0.22-2.12-.87l-0.4.74H72.48c3.28,0.85,5.92,2.31,7.07,5.53a12,12,0,0,1-.48,9.09L77.66,209l0.42-.46a0.71,0.71,0,0,1-.7-1,11.49,11.49,0,0,0,.59-1.18l-1.06.77-0.63-2A2.39,2.39,0,0,1,75,203.17a1.63,1.63,0,0,1-1.73-1.38l-0.4.38c-0.79-.57-1.56-1.1-2.3-1.68-0.46-.35-0.68-0.26-1,0.21a21.06,21.06,0,0,0-2.79,7c-0.63,2.42-1.19,4.87-1.65,7.33a25,25,0,0,0-.31,7.81,5.29,5.29,0,0,1,0,.6H60.69C61.78,215.24,63.7,207.34,68.3,200.22ZM62,219.5c1.19,0.72,1.27.72,1.83,0H62Zm2.07-9.5c0.36,1.11.48,1.18,1.44,0.78ZM65,213.31l-1.49-.68C63.75,213.57,63.92,213.66,65,213.31Z" transform="translate(-16.76 -7.01)"/><path class="cls-2" d="M127.88,159.82c-0.83.28-1.64,0.53-2.43,0.85a1,1,0,0,1-1.31-.23c-0.21.52-.5,0.68-0.75,0.38l-2,1.05-0.64-.76v1.21l-2.06-1.09,0.71,1.51c-0.76.11-1.18,1.22-2.32,0.26,0.56,1.22-.26,1.52-0.84,2l-2.75,2.18c-0.21.17-.44,0.31-0.67,0.47l-0.23-.08c0.12-1,.18-2,0.36-2.95a9.21,9.21,0,0,1,6.91-7.33,19.18,19.18,0,0,1,6.7.22c-0.38-.84-1.57-0.78-1.91-1.68-0.58.19-.75,0.07-0.71-0.73-0.36.24-.77,0.5-0.77-0.14h-3.74c-0.35.57-.59,0.61-1,0.05-0.45.77-.83,1-2.89,1.48a13.27,13.27,0,0,1,1.13-1.56,20.22,20.22,0,0,1,2.73-2.52,4.94,4.94,0,0,1,4.68-.26,9.12,9.12,0,0,1,4.39,3.16,1.54,1.54,0,0,0,.21.22,2.34,2.34,0,0,0,.37.15c-0.41-.86-0.69-1.57-1.09-2.21s-0.93-1.24-1.4-1.86c1.26-1.52,6.31-.7,7.47,1.31l-2.75,3c1.25-.45,2.32-0.87,3.41-1.22a3.78,3.78,0,0,1,3,.29,8.45,8.45,0,0,1,3.73,3.68,24.5,24.5,0,0,1,1.2,2.45l-1.94-1.51c-1,.42-0.79-0.74-1.12-1.32a1.32,1.32,0,0,1-2.1-.32c-0.79.54-1.62,0.22-2.12-.87l-0.4.74h-2.84c3.28,0.85,5.92,2.31,7.07,5.53a12,12,0,0,1-.48,9.09l-1.41-3.93,0.42-.46a0.71,0.71,0,0,1-.7-1,11.49,11.49,0,0,0,.59-1.18l-1.06.77-0.63-2a2.39,2.39,0,0,1-1.31-1.94,1.63,1.63,0,0,1-1.73-1.38l-0.4.38c-0.79-.57-1.56-1.1-2.3-1.68-0.46-.35-0.68-0.26-1,0.21a21.06,21.06,0,0,0-2.79,7c-0.63,2.42-1.19,4.87-1.65,7.33a25,25,0,0,0-.31,7.81,5.29,5.29,0,0,1,0,.6h-4.09C121.36,174.85,123.27,166.95,127.88,159.82Zm-6.27,19.28c1.19,0.72,1.27.72,1.83,0h-1.83Zm2.07-9.5c0.36,1.11.48,1.18,1.44,0.78Zm0.86,3.32-1.49-.68C123.32,173.17,123.5,173.26,124.54,172.92Z" transform="translate(-16.76 -7.01)"/><path class="cls-2" d="M190,200.77c-0.83.28-1.64,0.53-2.43,0.85a1,1,0,0,1-1.31-.23c-0.21.52-.5,0.68-0.75,0.38l-2,1.05-0.64-.76v1.21l-2.06-1.09,0.71,1.51c-0.76.11-1.18,1.22-2.32,0.26,0.56,1.22-.26,1.52-0.84,2l-2.75,2.18c-0.21.17-.44,0.31-0.67,0.47l-0.23-.08c0.12-1,.18-2,0.36-2.95a9.21,9.21,0,0,1,6.91-7.33,19.18,19.18,0,0,1,6.7.22c-0.38-.84-1.57-0.78-1.91-1.68-0.58.19-.75,0.07-0.71-0.73-0.36.24-.77,0.5-0.77-0.14h-3.74c-0.35.57-.59,0.61-1,0.05-0.45.77-.83,1-2.89,1.48a13.27,13.27,0,0,1,1.13-1.56,20.22,20.22,0,0,1,2.73-2.52,4.94,4.94,0,0,1,4.68-.26,9.12,9.12,0,0,1,4.39,3.16,1.54,1.54,0,0,0,.21.22,2.34,2.34,0,0,0,.37.15c-0.41-.86-0.69-1.57-1.09-2.21s-0.93-1.24-1.4-1.86c1.26-1.52,6.31-.7,7.47,1.31l-2.75,3c1.25-.45,2.32-0.87,3.41-1.22a3.78,3.78,0,0,1,3,.29,8.45,8.45,0,0,1,3.73,3.68,24.5,24.5,0,0,1,1.2,2.45l-1.94-1.51c-1,.42-0.79-0.74-1.12-1.32a1.32,1.32,0,0,1-2.1-.32c-0.79.54-1.62,0.22-2.12-.87l-0.4.74h-2.84c3.28,0.85,5.92,2.31,7.07,5.53a12,12,0,0,1-.48,9.09l-1.41-3.93,0.42-.46a0.71,0.71,0,0,1-.7-1,11.49,11.49,0,0,0,.59-1.18l-1.06.77-0.63-2a2.39,2.39,0,0,1-1.31-1.94,1.63,1.63,0,0,1-1.73-1.38l-0.4.38c-0.79-.57-1.56-1.1-2.3-1.68-0.46-.35-0.68-0.26-1,0.21a21.06,21.06,0,0,0-2.79,7c-0.63,2.42-1.19,4.87-1.65,7.33a25,25,0,0,0-.31,7.81,5.29,5.29,0,0,1,0,.6h-4.09C183.48,215.79,185.39,207.89,190,200.77ZM183.73,220c1.19,0.72,1.27.72,1.83,0h-1.83Zm2.07-9.5c0.36,1.11.48,1.18,1.44,0.78Zm0.86,3.32-1.49-.68C185.44,214.11,185.62,214.2,186.66,213.86Z" transform="translate(-16.76 -7.01)"/><path class="cls-2" d="M123.5,225.43h0l0.15-.1,0.92-.56h0a5.61,5.61,0,0,1-.57-0.14,3.28,3.28,0,0,1-1.66-1.2,0.31,0.31,0,0,0-.33-0.16c-0.33.06-.66,0.11-1,0.18s-0.51.17-.77,0.23a0.84,0.84,0,0,1-.64,0,0.67,0.67,0,0,1-.31-0.82,3.25,3.25,0,0,1,.47-0.95l0.12-.21a2.12,2.12,0,0,0-.36-0.05c-0.44,0-.87,0-1.31.05s-1,.09-1.53.14-0.83.05-1.24,0.13c-0.6.11-1.19,0.27-1.78,0.4a1.12,1.12,0,0,1-.43,0,0.89,0.89,0,0,1-.8-1,1,1,0,0,1,.09-0.36c0.17-.35.35-0.69,0.53-1l0.15-.27h-0.1c-0.51,0-1,.07-1.52.15a17.32,17.32,0,0,0-3,.75,1.71,1.71,0,0,1-.72.09,0.79,0.79,0,0,1-.73-0.4V220l0,0a1,1,0,0,1,.46-0.55,16.61,16.61,0,0,0,3-2.14l2.5-2.29c1.3-1.2,2.6-2.4,3.84-3.67,0.53-.54,1.06-1.08,1.58-1.63a10.2,10.2,0,0,0,1.36-1.71c0.07-.11.08-0.19,0-0.27s-0.05-.09,0-0.15a0.64,0.64,0,0,1,.6-0.27,0.89,0.89,0,0,1,.71.35,0.27,0.27,0,0,0,.3.1c0.35,0,.71-0.07,1.06-0.07a1.07,1.07,0,0,1,.73.25,1.92,1.92,0,0,1,.57.79c0.07,0.18.13,0.37,0.21,0.54a2.33,2.33,0,0,0,.26.45,0.43,0.43,0,0,0,.27.17,1.11,1.11,0,0,0,.91-0.33,3,3,0,0,0,.62-1,2.62,2.62,0,0,1,.31-0.55,0.57,0.57,0,0,1,.52-0.24l0.91,0.06a0.56,0.56,0,0,0,.57-0.2l0.07-.08a1,1,0,0,1,.53-0.32,2.11,2.11,0,0,1,1.12.07l0.21,0.08c-0.07-.21-0.14-0.39-0.19-0.59a0.55,0.55,0,0,1,.49-0.77l0.06,0a3.23,3.23,0,0,0-.33-0.85,7.62,7.62,0,0,0-1.47-2.08,5.21,5.21,0,0,0-1-.8,0.18,0.18,0,0,0-.12,0l-0.28.07a0.91,0.91,0,0,1-1-.63c-0.13-.46-0.29-0.9-0.45-1.35a5.19,5.19,0,0,0-.23-0.48,2,2,0,0,0-.52.48c-0.3.46-.62,0.91-0.89,1.38-0.6,1.06-1.18,2.13-1.77,3.19a6.43,6.43,0,0,1-.89,1.31,2.36,2.36,0,0,1-.33.29,0.25,0.25,0,0,1-.33-0.08,0.21,0.21,0,0,1-.05-0.31,2,2,0,0,1,.24-0.29c0.22-.22.45-0.42,0.66-0.64a9.87,9.87,0,0,0,1.65-2.5c0.41-.86.8-1.73,1.22-2.58a1.84,1.84,0,0,1,.91-1h0.15l0.07,0a0.66,0.66,0,0,1,.5.46c0,0.1.07,0.2,0.1,0.31a4.8,4.8,0,0,0,.55,1.42,0.27,0.27,0,0,0,.37.15,0.64,0.64,0,0,1,.71.18c0.14,0.16.25,0.34,0.39,0.5,1,1.23,1.88,2.56,2.93,3.75a0.49,0.49,0,0,1,0,.72,3.23,3.23,0,0,1-.4.26s0,0,0,0V207a3.4,3.4,0,0,0,.43,1.09c0.71,1.24,1.44,2.46,2.12,3.72,0.9,1.67,1.86,3.31,2.84,4.93a17,17,0,0,0,2,2.56,4.69,4.69,0,0,0,1.19,1.05h0l-0.24,0v0l0.42,0a0.57,0.57,0,0,1,.61.48,1.77,1.77,0,0,1,.05.18v0.22l0,0.09a0.71,0.71,0,0,1-.56.63,1.1,1.1,0,0,1-1.27-.53,0.19,0.19,0,0,0-.1-0.08,10.78,10.78,0,0,0-2.18-.26c-0.46,0-.92,0-1.38.08a17.94,17.94,0,0,0-2.4.38l-2.13.51a2.66,2.66,0,0,0-.89.4,0.39,0.39,0,0,0-.19.44c0,0.13.08,0.26,0.11,0.39a1.55,1.55,0,0,1,.07.41,0.8,0.8,0,0,1-.61.73,5.42,5.42,0,0,1-1.39.2c-0.51,0-1,.1-1.51.18-0.66.1-1.3,0.32-2,.37A2.67,2.67,0,0,0,123.5,225.43Z" transform="translate(-16.76 -7.01)"/><path class="cls-2" d="M63.18,143.56h0l0.15-.1,0.92-.56h0a5.61,5.61,0,0,1-.57-0.14,3.28,3.28,0,0,1-1.66-1.2,0.31,0.31,0,0,0-.33-0.16c-0.33.06-.66,0.11-1,0.18s-0.51.17-.77,0.23a0.84,0.84,0,0,1-.64,0,0.67,0.67,0,0,1-.31-0.82,3.25,3.25,0,0,1,.47-0.95l0.12-.21a2.12,2.12,0,0,0-.36-0.05c-0.44,0-.87,0-1.31.05s-1,.09-1.53.14-0.83.05-1.24,0.13c-0.6.11-1.19,0.27-1.78,0.4a1.12,1.12,0,0,1-.43,0,0.89,0.89,0,0,1-.8-1,1,1,0,0,1,.09-0.36c0.17-.35.35-0.69,0.53-1l0.15-.27h-0.1c-0.51,0-1,.07-1.52.15a17.32,17.32,0,0,0-3,.75,1.71,1.71,0,0,1-.72.09,0.79,0.79,0,0,1-.73-0.4v-0.22l0,0a1,1,0,0,1,.46-0.55,16.61,16.61,0,0,0,3-2.14l2.5-2.29c1.3-1.2,2.6-2.4,3.84-3.67,0.53-.54,1.06-1.08,1.58-1.63a10.2,10.2,0,0,0,1.36-1.71c0.07-.11.08-0.19,0-0.27s-0.05-.09,0-0.15a0.64,0.64,0,0,1,.6-0.27,0.89,0.89,0,0,1,.71.35,0.27,0.27,0,0,0,.3.1c0.35,0,.71-0.07,1.06-0.07a1.07,1.07,0,0,1,.73.25,1.92,1.92,0,0,1,.57.79c0.07,0.18.13,0.37,0.21,0.54a2.33,2.33,0,0,0,.26.45,0.43,0.43,0,0,0,.27.17,1.11,1.11,0,0,0,.91-0.33,3,3,0,0,0,.62-1,2.62,2.62,0,0,1,.31-0.55,0.57,0.57,0,0,1,.52-0.24L67.56,126a0.56,0.56,0,0,0,.57-0.2l0.07-.08a1,1,0,0,1,.53-0.32,2.11,2.11,0,0,1,1.12.07l0.21,0.08c-0.07-.21-0.14-0.39-0.19-0.59a0.55,0.55,0,0,1,.49-0.77l0.06,0a3.23,3.23,0,0,0-.33-0.85,7.62,7.62,0,0,0-1.47-2.08,5.21,5.21,0,0,0-1-.8,0.18,0.18,0,0,0-.12,0l-0.28.07a0.91,0.91,0,0,1-1-.63c-0.13-.46-0.29-0.9-0.45-1.35a5.19,5.19,0,0,0-.23-0.48,2,2,0,0,0-.52.48c-0.3.46-.62,0.91-0.89,1.38-0.6,1.06-1.18,2.13-1.77,3.19a6.43,6.43,0,0,1-.89,1.31,2.36,2.36,0,0,1-.33.29,0.25,0.25,0,0,1-.33-0.08,0.21,0.21,0,0,1-.05-0.31,2,2,0,0,1,.24-0.29c0.22-.22.45-0.42,0.66-0.64a9.87,9.87,0,0,0,1.65-2.5c0.41-.86.8-1.73,1.22-2.58a1.84,1.84,0,0,1,.91-1h0.15l0.07,0a0.66,0.66,0,0,1,.5.46c0,0.1.07,0.2,0.1,0.31a4.8,4.8,0,0,0,.55,1.42,0.27,0.27,0,0,0,.37.15,0.64,0.64,0,0,1,.71.18c0.14,0.16.25,0.34,0.39,0.5,1,1.23,1.88,2.56,2.93,3.75a0.49,0.49,0,0,1,0,.72,3.23,3.23,0,0,1-.4.26s0,0,0,0v0.06a3.4,3.4,0,0,0,.43,1.09c0.71,1.24,1.44,2.46,2.12,3.72,0.9,1.67,1.86,3.31,2.84,4.93a17,17,0,0,0,2,2.56,4.69,4.69,0,0,0,1.19,1.05h0l-0.24,0v0l0.42,0a0.57,0.57,0,0,1,.61.48,1.77,1.77,0,0,1,.05.18v0.22l0,0.09a0.71,0.71,0,0,1-.56.63,1.1,1.1,0,0,1-1.27-.53,0.19,0.19,0,0,0-.1-0.08,10.78,10.78,0,0,0-2.18-.26c-0.46,0-.92,0-1.38.08a17.94,17.94,0,0,0-2.4.38l-2.13.51a2.66,2.66,0,0,0-.89.4,0.39,0.39,0,0,0-.19.44c0,0.13.08,0.26,0.11,0.39a1.55,1.55,0,0,1,.07.41,0.8,0.8,0,0,1-.61.73,5.42,5.42,0,0,1-1.39.2c-0.51,0-1,.1-1.51.18-0.66.1-1.3,0.32-2,.37A2.67,2.67,0,0,0,63.18,143.56Z" transform="translate(-16.76 -7.01)"/><path class="cls-2" d="M53.77,153.16v1.62a2.7,2.7,0,0,0,.32.43,0.81,0.81,0,0,0,.34.15c0.82,0.19,1.63.41,2.46,0.56a0.41,0.41,0,0,1,.39.52q0,7.48,0,15c0,0.23,0,.44.35,0.43,0-.12,0-0.24,0-0.37q0-1.21,0-2.42a0.35,0.35,0,0,1,.27-0.43,0.35,0.35,0,0,0,.14-0.27c0-.38,0-0.76,0-1.14a0.38,0.38,0,0,1,.35-0.47,0.62,0.62,0,0,0,.54-0.51c0.18-.56.4-1.11,0.63-1.74,0.27,0.63.53,1.19,0.76,1.76a0.51,0.51,0,0,0,.57.39V156l1.88-.51,1.27-.33a0.54,0.54,0,0,1,.24,0L67.81,156l0.11,0.06v12.72a5.66,5.66,0,0,1,.83,0,1.61,1.61,0,0,1,.63.24c0.3,0.2.58,0.45,0.86,0.68a0.26,0.26,0,0,1,.11.12c0,0.28.14,0.34,0.36,0.37s0.21,0.19.21,0.34q0,1.23,0,2.46c0,0.13,0,.26,0,0.4a0.49,0.49,0,0,0,.18,0,1.34,1.34,0,0,1,1.38.68,0.7,0.7,0,0,1,.12.42c0,1.29,0,2.59,0,3.88,0,0.12,0,.24,0,0.36h0.09V170.4l1.2-.13,3.15-.28a0.56,0.56,0,0,1,.21,0c0.71,0.22,1.42.46,2.14,0.65a0.38,0.38,0,0,1,.33.44c0,1.94,0,3.87,0,5.81,0,0.14,0,.28,0,0.46h2.53a1.72,1.72,0,0,1,.86.19,0.77,0.77,0,0,1,.5.84,4.76,4.76,0,0,0,.13,1v0.36H44.7a3.43,3.43,0,0,1-.48-0.07V170l0.48-.09a1.33,1.33,0,0,1,.22-0.4,3,3,0,0,1,2.18-.83,2.45,2.45,0,0,1,2.1.73,0.84,0.84,0,0,1,.44.69l0.43,0.14V177h0.07v-0.41q0-10.12,0-20.23a0.39,0.39,0,0,1,.37-0.47c0.75-.16,1.49-0.38,2.25-0.53a0.41,0.41,0,0,0,.43-0.42l0.37-.05v-1.77h0.21ZM53.53,177.1V155.58a1.92,1.92,0,0,0-.26,0c-0.82.2-1.63,0.41-2.45,0.59a0.39,0.39,0,0,0-.37.47q0,10,0,20.06c0,0.12,0,.25,0,0.38h3.06Zm10.57-21.53a2.42,2.42,0,0,0-.3,0c-0.76.2-1.51,0.41-2.27,0.59a0.32,0.32,0,0,0-.3.38c0,0.89,0,1.78,0,2.67q0,9.63.08,19.26c0,0.1,0,.21,0,0.33h1.06v-0.41c0-2,0-4.09,0-6.13a1.59,1.59,0,0,1,.14-0.46l-0.79.09,0-.11a0.52,0.52,0,0,1,.14-0.06c0.53-.07,1.06-0.16,1.59-0.2s0.64-.14.64-0.65q0-7.45,0-14.89v-0.45ZM53.89,177.23l0.18-.13q0-.19,0-0.38c0-1.43,0-2.85,0-4.28a0.39,0.39,0,0,1,.32-0.46,8.09,8.09,0,0,0,1.11-.38,1.37,1.37,0,0,1,1.37,0,0.23,0.23,0,0,0,.1,0V157.06c0-.76,0-0.77-0.74-0.94l-2.38-.55c0,0.16,0,.28,0,0.4q0,10.37,0,20.74c0,0.09,0,.19,0,0.28S53.88,177.15,53.89,177.23Zm13.64-8.38a1,1,0,0,0,.06-0.16q0-6.09,0-12.18a0.38,0.38,0,0,0-.23-0.26c-0.73-.19-1.47-0.35-2.21-0.52l-0.73-.16v15.66l0.7,0.19V170l0.51-.1-0.24-.17-0.15-.11a2,2,0,0,0,1.32-.63l-1.31-.25,0-.11ZM47.13,170c-0.76.08-1.48,0.18-2.2,0.23a0.36,0.36,0,0,0-.42.44c0,2.61,0,5.23,0,7.84a0.49,0.49,0,0,0,0,.21,0.35,0.35,0,0,0,.19.19c0.27,0,.54,0,0.84,0V177.1h1.57V170Zm0.35-.05v7.2h2.26c0-.14,0-0.27,0-0.4q0-1.44,0-2.88c0-1,0-2,0-3.06a0.32,0.32,0,0,0-.3-0.38C48.8,170.24,48.16,170.07,47.48,169.9Zm22.59,6.81-1.2-.27,0-.14,1.16,0.18V176l-1.19-.27,0-.13L70,175.78c0.12-.38,0-0.55-0.36-0.58a4.28,4.28,0,0,1-.63-0.11,0.71,0.71,0,0,1-.19-0.11l0-.09L70,175.08c0.11-.35.06-0.55-0.34-0.57a3.45,3.45,0,0,1-.63-0.12,1,1,0,0,1-.21-0.1l0-.1L70,174.38c0.09-.34.06-0.55-0.35-0.57a3.45,3.45,0,0,1-.7-0.13,0.43,0.43,0,0,1-.14-0.13,4.39,4.39,0,0,1,1,.1,0.37,0.37,0,0,0,.2,0c0.17-.08.32-0.19,0.53-0.31V170.5l-2-.5v8.84h1.52v-0.73L69.39,178c-0.46-.09-0.46-0.08-0.47-0.26l1.14,0.2v-0.49l-1.2-.26,0-.13,1.17,0.17v-0.48Zm-1.88,2.14V170l-2.79.3c0,0.34,0,.65,0,1a0.3,0.3,0,0,0,.26.35L67.09,172v0.7h0v1.5s0,0,0,0a4.14,4.14,0,0,1,.1.58,5,5,0,0,1-.1.57c0,0.07.08,0.14,0.08,0.21,0,0.4-.06.79-0.08,1.19a0.62,0.62,0,0,0,.21.13c-0.5.25-.07,0.58-0.18,0.89a3.24,3.24,0,0,0,0,1.07h1.14Zm-3.88-.11v-7.11c-0.45.16-.88,0.32-1.32,0.46a0.37,0.37,0,0,0-.31.42c0,2,0,3.94,0,5.92,0,0.1,0,.2,0,0.31h1.6Zm-4.79.12V168.58l-1.54.36c0,0.93,0,1.82,0,2.71a0.43,0.43,0,0,0,.36.54,0.47,0.47,0,0,1,.41.58c0,1.89,0,3.78,0,5.67,0,0.14,0,.28,0,0.42h0.79Zm1.47,0v-0.43q0-2.6,0-5.19c0-1.32,0-2.63,0-3.95a0.45,0.45,0,0,0-.13-0.35,8.24,8.24,0,0,0-.92-0.26v10.18H61Zm-6.78-1.3H45.95v1.29H54.2v-1.29ZM77,171.46l-1.24.1v5.81H77v-5.91Zm-1.47.12c-0.32,0-.61,0-0.91,0s-0.35.12-.35,0.39c0,1.67,0,3.34,0,5,0,0.11,0,.23,0,0.33H75.5v-5.78ZM74,178.71l0.12-7-1,.08v7H74Zm8.61,0v-0.9H74.28v0.9H82.6Zm-12.2-5v4.95h1.13v-4.95H70.4Zm-5.78.1,2.08,0.33v-1.12c0-.85,0-0.85-0.82-1.11l-1.26-.4v2.3Zm14.14,3.49V177q0-2.33,0-4.66c0-.58-0.06-0.64-0.68-0.61v5.66h0.68ZM56,171.77a0.44,0.44,0,0,0-.51.53c0,2,0,4.08,0,6.12v0.39H56v-7Zm21.82,5.6c0-1.79,0-3.55,0-5.31,0-.53,0-0.53-0.55-0.55v5.87h0.55Zm-11.17-1.45c0-.48,0-0.92,0-1.35a0.25,0.25,0,0,0-.15-0.18l-1.9-.32v1.52Zm0,1.69c0-.48,0-0.91,0-1.34a0.28,0.28,0,0,0-.18-0.2c-0.62-.11-1.23-0.2-1.88-0.3v1.53Zm-9.86,1.2v-0.36c0-2.06,0-4.12,0-6.19a0.39,0.39,0,0,0-.42-0.48v7h0.41Zm22.11-6.95v5.5h0.47V172Zm-14.32,6.85h2.07c0-.25,0-0.47,0-0.7a0.3,0.3,0,0,0-.15-0.22c-0.63-.11-1.25-0.19-1.91-0.28v1.2Zm-9.36.07h0.08V172c-0.31,0-.31.18-0.3,0.39,0,1.6,0,3.2,0,4.81a0.46,0.46,0,0,0,0,.27,0.71,0.71,0,0,1,.19.73C55.28,178.4,55.26,178.59,55.26,178.78Zm17,0c0-1.4,0-2.75,0-4.1a0.68,0.68,0,0,0-.42-0.65v4.82Zm-14.74-6.58-0.11,0a0.64,0.64,0,0,0,0,.13q0,3.13,0,6.26a0.64,0.64,0,0,0,.1.23,0.79,0.79,0,0,0,.12-0.28q0-3,0-6A1.24,1.24,0,0,0,57.56,172.18Zm1.86-3.91v-1.53c-0.33.1-.62,0.17-0.89,0.26a0.24,0.24,0,0,0-.13.17c0,0.41,0,.82,0,1.27ZM57.16,172l-0.11,0a1.16,1.16,0,0,0,0,.17q0,1.12,0,2.24c0,1.35,0,2.71,0,4.06a1,1,0,0,0,.12.31,1.15,1.15,0,0,0,.1-0.29c0-.25,0-0.5,0-0.75,0-1.8,0-3.61,0-5.41A1.46,1.46,0,0,0,57.16,172Zm0.78,0.31-0.12,0q0,3.13,0,6.27a0.48,0.48,0,0,0,.11.19,0.66,0.66,0,0,0,.12-0.24q0-3,0-6A1,1,0,0,0,57.95,172.33Zm1.87-5.58c0,0.33,0,.6,0,0.87,0,0.68,0,.68.68,0.85a0.33,0.33,0,0,0,.1,0v-1.53Zm-5.08,10.65,0.08,0V172.2l-0.09,0a0.8,0.8,0,0,0-.11.27q0,2.33,0,4.66A0.92,0.92,0,0,0,54.74,177.39Zm3.63-4.86H58.31v6.28h0.06v-6.28Zm0.82-6.12h0.88l-0.48-1.12Z" transform="translate(-16.76 -7.01)"/><path class="cls-2" d="M52.87,174.58l-1.83.24A2.39,2.39,0,0,1,52.87,174.58Z" transform="translate(-16.76 -7.01)"/><path class="cls-2" d="M52.81,168.88a4.74,4.74,0,0,1-1.74.19A4.72,4.72,0,0,1,52.81,168.88Z" transform="translate(-16.76 -7.01)"/><path class="cls-2" d="M51,161.52l1.83-.24A2.41,2.41,0,0,1,51,161.52Z" transform="translate(-16.76 -7.01)"/><path class="cls-2" d="M52.86,162.4l-1.83.24A2.4,2.4,0,0,1,52.86,162.4Z" transform="translate(-16.76 -7.01)"/><path class="cls-2" d="M52.82,159.4a4.77,4.77,0,0,1-1.74.21A4.76,4.76,0,0,1,52.82,159.4Z" transform="translate(-16.76 -7.01)"/><path class="cls-2" d="M51,173.71l1.83-.24A2.4,2.4,0,0,1,51,173.71Z" transform="translate(-16.76 -7.01)"/><path class="cls-2" d="M52.83,172.71l-1.75.23,0-.17,1.74-.24Z" transform="translate(-16.76 -7.01)"/><path class="cls-2" d="M51.09,175.76a2.43,2.43,0,0,1,1.78-.24Z" transform="translate(-16.76 -7.01)"/><path class="cls-2" d="M51.07,160.58l1.8-.24A2.43,2.43,0,0,1,51.07,160.58Z" transform="translate(-16.76 -7.01)"/><path class="cls-2" d="M52.83,158.52l-1.74.23,0-.16,1.74-.25Z" transform="translate(-16.76 -7.01)"/><path class="cls-2" d="M51.07,163.41a11,11,0,0,1,1.75-.22l0,0.14-1.74.23Z" transform="translate(-16.76 -7.01)"/><path class="cls-2" d="M51.07,169.95l1.75-.23,0,0.17-1.74.23Z" transform="translate(-16.76 -7.01)"/><path class="cls-2" d="M52.83,164.27l-1.82.24A2.56,2.56,0,0,1,52.83,164.27Z" transform="translate(-16.76 -7.01)"/><path class="cls-2" d="M51.07,165.27l1.74-.23,0,0.17-1.74.24Z" transform="translate(-16.76 -7.01)"/><path class="cls-2" d="M51.07,157.64l1.74-.23,0,0.17-1.74.23Z" transform="translate(-16.76 -7.01)"/><path class="cls-2" d="M51.07,166.21l1.74-.23,0,0.17-1.74.24Z" transform="translate(-16.76 -7.01)"/><path class="cls-2" d="M52.83,171.78l-1.74.23,0-.16,1.74-.24Z" transform="translate(-16.76 -7.01)"/><path class="cls-2" d="M51.07,176.52l1.74-.23,0,0.17-1.74.24Z" transform="translate(-16.76 -7.01)"/><path class="cls-2" d="M51.07,168.07l1.74-.22,0,0.16-1.74.23Z" transform="translate(-16.76 -7.01)"/><path class="cls-2" d="M51.07,170.88l1.74-.22,0,0.16-1.74.23Z" transform="translate(-16.76 -7.01)"/><path class="cls-2" d="M51.07,167.13l1.74-.22,0,0.16-1.74.23Z" transform="translate(-16.76 -7.01)"/><path class="cls-2" d="M52.89,156.64l-1.8.23A2.59,2.59,0,0,1,52.89,156.64Z" transform="translate(-16.76 -7.01)"/><path class="cls-2" d="M63.49,165.16l-1.72.23,0-.16,1.72-.24Z" transform="translate(-16.76 -7.01)"/><path class="cls-2" d="M63.48,159.4l-1.72.24,0-.17,1.72-.25Z" transform="translate(-16.76 -7.01)"/><path class="cls-2" d="M61.71,157.6l1.78-.24A2.26,2.26,0,0,1,61.71,157.6Z" transform="translate(-16.76 -7.01)"/><path class="cls-2" d="M61.68,160.53l1.85-.25A2.49,2.49,0,0,1,61.68,160.53Z" transform="translate(-16.76 -7.01)"/><path class="cls-2" d="M63.54,162.32l-1.81.25A2.36,2.36,0,0,1,63.54,162.32Z" transform="translate(-16.76 -7.01)"/><path class="cls-2" d="M63.48,163.27l-1.76.24A2.34,2.34,0,0,1,63.48,163.27Z" transform="translate(-16.76 -7.01)"/><path class="cls-2" d="M63.48,161.39l-1.72.24,0-.13a13.27,13.27,0,0,1,1.71-.28Z" transform="translate(-16.76 -7.01)"/><path class="cls-2" d="M61.73,168.19a2.49,2.49,0,0,1,1.85-.25Z" transform="translate(-16.76 -7.01)"/><path class="cls-2" d="M63.46,158.3a2.22,2.22,0,0,1-1.74.23Z" transform="translate(-16.76 -7.01)"/><path class="cls-2" d="M61.76,166.15l1.76-.23a0.56,0.56,0,0,1-.14.19,12.8,12.8,0,0,1-1.62.18v-0.14Z" transform="translate(-16.76 -7.01)"/><path class="cls-2" d="M63.49,170.77l-1.72.24,0-.17,1.72-.24Z" transform="translate(-16.76 -7.01)"/><path class="cls-2" d="M63.49,164.2l-1.78.24a3.09,3.09,0,0,1,1.77-.34v0.09Z" transform="translate(-16.76 -7.01)"/><path class="cls-2" d="M63.49,156.59l-1.72.23,0-.16,1.72-.24Z" transform="translate(-16.76 -7.01)"/><path class="cls-2" d="M63.48,167l-1.72.22,0-.17,1.72-.22Z" transform="translate(-16.76 -7.01)"/><path class="cls-2" d="M63.49,168.9l-1.79.24A2.49,2.49,0,0,1,63.49,168.9Z" transform="translate(-16.76 -7.01)"/><path class="cls-2" d="M63.49,169.84l-1.72.22,0-.16,1.72-.23Z" transform="translate(-16.76 -7.01)"/><path class="cls-2" d="M56.29,159.59a2.31,2.31,0,0,1-1.8-.29Z" transform="translate(-16.76 -7.01)"/><path class="cls-2" d="M56.26,171l-1.79-.3,0-.17,1.79,0.3Z" transform="translate(-16.76 -7.01)"/><path class="cls-2" d="M56.26,158.82l-1.79-.3,0-.17,1.79,0.3Z" transform="translate(-16.76 -7.01)"/><path class="cls-2" d="M54.5,164l1.79,0.29,0,0.17-1.79-.28Z" transform="translate(-16.76 -7.01)"/><path class="cls-2" d="M54.5,163l1.79,0.29,0,0.17-1.79-.28Z" transform="translate(-16.76 -7.01)"/><path class="cls-2" d="M54.5,161.18a12.91,12.91,0,0,1,1.78.3l0,0.15-1.79-.29Z" transform="translate(-16.76 -7.01)"/><path class="cls-2" d="M56.33,160.53a2.37,2.37,0,0,1-1.84-.29Z" transform="translate(-16.76 -7.01)"/><path class="cls-2" d="M56.25,162.57l-1.78-.29,0-.17,1.79,0.28Z" transform="translate(-16.76 -7.01)"/><path class="cls-2" d="M54.5,168.67L56.29,169l0,0.16-1.78-.29Z" transform="translate(-16.76 -7.01)"/><path class="cls-2" d="M56.26,157.87l-1.79-.28,0-.16,1.79,0.28Z" transform="translate(-16.76 -7.01)"/><path class="cls-2" d="M54.5,169.6l1.79,0.29,0,0.16-1.79-.28Z" transform="translate(-16.76 -7.01)"/><path class="cls-2" d="M56.26,165.38l-1.79-.29,0-.16,1.79,0.29Z" transform="translate(-16.76 -7.01)"/><path class="cls-2" d="M54.45,165.86l1.84,0.29A2.46,2.46,0,0,1,54.45,165.86Z" transform="translate(-16.76 -7.01)"/><path class="cls-2" d="M56.31,168a2.38,2.38,0,0,1-1.81-.28Z" transform="translate(-16.76 -7.01)"/><path class="cls-2" d="M54.45,166.78l1.91,0.31A2.74,2.74,0,0,1,54.45,166.78Z" transform="translate(-16.76 -7.01)"/><path class="cls-2" d="M54.5,156.48l1.79,0.29,0,0.16-1.79-.28Z" transform="translate(-16.76 -7.01)"/><path class="cls-2" d="M67,158.75l-1.78-.29,0-.17L67,158.58Z" transform="translate(-16.76 -7.01)"/><path class="cls-2" d="M67.06,160.65l-1.85-.31A2.45,2.45,0,0,1,67.06,160.65Z" transform="translate(-16.76 -7.01)"/><path class="cls-2" d="M67,163.45l-1.77-.3,0-.17L67,163.28Z" transform="translate(-16.76 -7.01)"/><path class="cls-2" d="M67,162.51l-1.83-.31a3.32,3.32,0,0,1,1.85.22Z" transform="translate(-16.76 -7.01)"/><path class="cls-2" d="M65.27,161.11L67,161.4l0,0.17-1.77-.3Z" transform="translate(-16.76 -7.01)"/><path class="cls-2" d="M67,159.71l-1.82-.31A2.31,2.31,0,0,1,67,159.71Z" transform="translate(-16.76 -7.01)"/><path class="cls-2" d="M65.27,157.36L67,157.65l0,0.17-1.77-.28Z" transform="translate(-16.76 -7.01)"/><path class="cls-2" d="M67.09,167a3,3,0,0,1-1.83-.16v-0.1Z" transform="translate(-16.76 -7.01)"/><path class="cls-2" d="M67,168.12l-1.76-.28,0-.17L67,168Z" transform="translate(-16.76 -7.01)"/><path class="cls-2" d="M65.27,156.42L67,156.71l0,0.16-1.77-.28Z" transform="translate(-16.76 -7.01)"/><path class="cls-2" d="M67,164.38l-1.77-.3,0-.16L67,164.21Z" transform="translate(-16.76 -7.01)"/><path class="cls-2" d="M67,165.32L65.24,165l0-.16L67,165.15Z" transform="translate(-16.76 -7.01)"/><path class="cls-2" d="M67.06,166.09a2.47,2.47,0,0,1-1.8-.25l0.85,0.09Z" transform="translate(-16.76 -7.01)"/><path class="cls-2" d="M46.29,173.58l-1.23.12,0-.16,1.23-.14Z" transform="translate(-16.76 -7.01)"/><path class="cls-2" d="M45.13,170.71l1.27-.1A1.24,1.24,0,0,1,45.13,170.71Z" transform="translate(-16.76 -7.01)"/><path class="cls-2" d="M46.29,174.27l-1.23.12,0-.16,1.23-.13Z" transform="translate(-16.76 -7.01)"/><path class="cls-2" d="M46.29,176.4l-1.25.09v-0.16l1.25-.1v0.17Z" transform="translate(-16.76 -7.01)"/><path class="cls-2" d="M45.16,172.86a7.86,7.86,0,0,1,1.25-.16v0.18l-1.25.11v-0.13Z" transform="translate(-16.76 -7.01)"/><path class="cls-2" d="M46.41,171.31a1.41,1.41,0,0,1-1.33.11Z" transform="translate(-16.76 -7.01)"/><path class="cls-2" d="M45,175.63l1.32-.11A1.31,1.31,0,0,1,45,175.63Z" transform="translate(-16.76 -7.01)"/><path class="cls-2" d="M45,174.94l1.23-.12,0,0.16-1.22.12Z" transform="translate(-16.76 -7.01)"/><path class="cls-2" d="M45.16,172.12l1.25-.09v0.15l-1.25.11v-0.17Z" transform="translate(-16.76 -7.01)"/><path class="cls-2" d="M49.11,174.51l-1.2-.22,0-.17,1.2,0.23Z" transform="translate(-16.76 -7.01)"/><path class="cls-2" d="M47.93,173.4l1.21,0.25,0,0.1A1.35,1.35,0,0,1,47.93,173.4Z" transform="translate(-16.76 -7.01)"/><path class="cls-2" d="M47.95,172.71L49.14,173l0,0.15-1.2-.24Z" transform="translate(-16.76 -7.01)"/><path class="cls-2" d="M49.1,171l-1.2-.22,0-.17,1.2,0.23Z" transform="translate(-16.76 -7.01)"/><path class="cls-2" d="M47.94,176.23l1.2,0.22,0,0.17-1.2-.23Z" transform="translate(-16.76 -7.01)"/><path class="cls-2" d="M49.1,175.92l-1.2-.22,0-.17,1.2,0.22Z" transform="translate(-16.76 -7.01)"/><path class="cls-2" d="M49.11,171.7l-1.2-.24,0-.13a5.06,5.06,0,0,1,1.2.21Z" transform="translate(-16.76 -7.01)"/><path class="cls-2" d="M47.94,172l1.2,0.21,0,0.17-1.19-.23Z" transform="translate(-16.76 -7.01)"/><path class="cls-2" d="M49.1,175.21L47.9,175l0-.17,1.19,0.23Z" transform="translate(-16.76 -7.01)"/><path class="cls-2" d="M68.9,172.12a2.33,2.33,0,0,1,1.19.3A2.18,2.18,0,0,1,68.9,172.12Z" transform="translate(-16.76 -7.01)"/><path class="cls-2" d="M70.07,171.77l-1.2-.24,0-.16,1.2,0.22Z" transform="translate(-16.76 -7.01)"/><path class="cls-2" d="M68.93,170.65l1.18,0.25,0,0.15-1.2-.24Z" transform="translate(-16.76 -7.01)"/><path class="cls-2" d="M68.88,172.77L70.1,173A1.19,1.19,0,0,1,68.88,172.77Z" transform="translate(-16.76 -7.01)"/><path class="cls-2" d="M67.16,171.47l-1.27.11v-0.16l1.27-.11v0.16Z" transform="translate(-16.76 -7.01)"/><path class="cls-2" d="M67.23,170.89l-1.39.12A1.47,1.47,0,0,1,67.23,170.89Z" transform="translate(-16.76 -7.01)"/><path class="cls-2" d="M46.28,177.78a43.38,43.38,0,0,1,7.44,0H46.28Z" transform="translate(-16.76 -7.01)"/><path class="cls-2" d="M82,178.07H74.63A45.12,45.12,0,0,1,82,178.07Z" transform="translate(-16.76 -7.01)"/><path class="cls-2" d="M179.46,117.68v1.62a2.7,2.7,0,0,0,.32.43,0.81,0.81,0,0,0,.34.15c0.82,0.19,1.63.41,2.46,0.56a0.41,0.41,0,0,1,.39.52q0,7.48,0,15c0,0.23,0,.44.35,0.43,0-.12,0-0.24,0-0.37q0-1.21,0-2.42a0.35,0.35,0,0,1,.27-0.43,0.35,0.35,0,0,0,.14-0.27c0-.38,0-0.76,0-1.14a0.38,0.38,0,0,1,.35-0.47,0.62,0.62,0,0,0,.54-0.51c0.18-.56.4-1.11,0.63-1.74,0.27,0.63.53,1.19,0.76,1.76a0.51,0.51,0,0,0,.57.39v-10.6l1.88-.51,1.27-.33a0.54,0.54,0,0,1,.24,0l3.53,0.83,0.11,0.06v12.72a5.66,5.66,0,0,1,.83,0,1.61,1.61,0,0,1,.63.24c0.3,0.2.58,0.45,0.86,0.68a0.26,0.26,0,0,1,.11.12c0,0.28.14,0.34,0.36,0.37s0.21,0.19.21,0.34q0,1.23,0,2.46c0,0.13,0,.26,0,0.4a0.49,0.49,0,0,0,.18,0,1.34,1.34,0,0,1,1.38.68,0.7,0.7,0,0,1,.12.42c0,1.29,0,2.59,0,3.88,0,0.12,0,.24,0,0.36h0.09v-8.39l1.2-.13,3.15-.28a0.56,0.56,0,0,1,.21,0c0.71,0.22,1.42.46,2.14,0.65a0.38,0.38,0,0,1,.33.44c0,1.94,0,3.87,0,5.81,0,0.14,0,.28,0,0.46H208a1.72,1.72,0,0,1,.86.19,0.77,0.77,0,0,1,.5.84,4.76,4.76,0,0,0,.13,1v0.36H170.4a3.43,3.43,0,0,1-.48-0.07V134.5l0.48-.09a1.33,1.33,0,0,1,.22-0.4,3,3,0,0,1,2.18-.83,2.45,2.45,0,0,1,2.1.73,0.84,0.84,0,0,1,.44.69l0.43,0.14v6.83h0.07v-0.41q0-10.12,0-20.23a0.39,0.39,0,0,1,.37-0.47c0.75-.16,1.49-0.38,2.25-0.53a0.41,0.41,0,0,0,.43-0.42l0.37-.05v-1.77h0.21Zm-0.24,23.94V120.1a1.92,1.92,0,0,0-.26,0c-0.82.2-1.63,0.41-2.45,0.59a0.39,0.39,0,0,0-.37.47q0,10,0,20.06c0,0.12,0,.25,0,0.38h3.06Zm10.57-21.53a2.42,2.42,0,0,0-.3,0c-0.76.2-1.51,0.41-2.27,0.59a0.32,0.32,0,0,0-.3.38c0,0.89,0,1.78,0,2.67q0,9.63.08,19.26c0,0.1,0,.21,0,0.33h1.06V143c0-2,0-4.09,0-6.13a1.59,1.59,0,0,1,.14-0.46l-0.79.09,0-.11a0.52,0.52,0,0,1,.14-0.06c0.53-.07,1.06-0.16,1.59-0.2s0.64-.14.64-0.65q0-7.45,0-14.89v-0.45Zm-10.21,21.66,0.18-.13q0-.19,0-0.38c0-1.43,0-2.85,0-4.28a0.39,0.39,0,0,1,.32-0.46,8.09,8.09,0,0,0,1.11-.38,1.37,1.37,0,0,1,1.37,0,0.23,0.23,0,0,0,.1,0V121.58c0-.76,0-0.77-0.74-0.94l-2.38-.55c0,0.16,0,.28,0,0.4q0,10.37,0,20.74c0,0.09,0,.19,0,0.28S179.57,141.67,179.59,141.75Zm13.64-8.38a1,1,0,0,0,.06-0.16q0-6.09,0-12.18a0.38,0.38,0,0,0-.23-0.26c-0.73-.19-1.47-0.35-2.21-0.52l-0.73-.16v15.66l0.7,0.19v-1.38l0.51-.1-0.24-.17-0.15-.11a2,2,0,0,0,1.32-.63l-1.31-.25,0-.11Zm-20.4,1.11c-0.76.08-1.48,0.18-2.2,0.23a0.36,0.36,0,0,0-.42.44c0,2.61,0,5.23,0,7.84a0.49,0.49,0,0,0,0,.21,0.35,0.35,0,0,0,.19.19c0.27,0,.54,0,0.84,0v-1.76h1.57v-7.15Zm0.35-.05v7.2h2.26c0-.14,0-0.27,0-0.4q0-1.44,0-2.88c0-1,0-2,0-3.06a0.32,0.32,0,0,0-.3-0.38C174.5,134.77,173.86,134.59,173.18,134.42Zm22.59,6.81-1.2-.27,0-.14,1.16,0.18v-0.47l-1.19-.27,0-.13,1.15,0.18c0.12-.38,0-0.55-0.36-0.58a4.28,4.28,0,0,1-.63-0.11,0.71,0.71,0,0,1-.19-0.11l0-.09,1.13,0.18c0.11-.35.06-0.55-0.34-0.57a3.45,3.45,0,0,1-.63-0.12,1,1,0,0,1-.21-0.1l0-.1,1.15,0.19c0.09-.34.06-0.55-0.35-0.57a3.45,3.45,0,0,1-.7-0.13,0.43,0.43,0,0,1-.14-0.13,4.39,4.39,0,0,1,1,.1,0.37,0.37,0,0,0,.2,0c0.17-.08.32-0.19,0.53-0.31V135l-2-.5v8.84h1.52v-0.73l-0.67-.14c-0.46-.09-0.46-0.08-0.47-0.26l1.14,0.2v-0.49l-1.2-.26,0-.13,1.17,0.17v-0.48Zm-1.88,2.14v-8.85l-2.79.3c0,0.34,0,.65,0,1a0.3,0.3,0,0,0,.26.35l1.44,0.38v0.7h0v1.5s0,0,0,0a4.14,4.14,0,0,1,.1.58,5,5,0,0,1-.1.57c0,0.07.08,0.14,0.08,0.21,0,0.4-.06.79-0.08,1.19a0.62,0.62,0,0,0,.21.13c-0.5.25-.07,0.58-0.18,0.89a3.24,3.24,0,0,0,0,1.07h1.14Zm-3.88-.11v-7.11c-0.45.16-.88,0.32-1.32,0.46a0.37,0.37,0,0,0-.31.42c0,2,0,3.94,0,5.92,0,0.1,0,.2,0,0.31H190Zm-4.79.12V133.1l-1.54.36c0,0.93,0,1.82,0,2.71a0.43,0.43,0,0,0,.36.54,0.47,0.47,0,0,1,.41.58c0,1.89,0,3.78,0,5.67,0,0.14,0,.28,0,0.42h0.79Zm1.47,0v-0.43q0-2.6,0-5.19c0-1.32,0-2.63,0-3.95a0.45,0.45,0,0,0-.13-0.35,8.24,8.24,0,0,0-.92-0.26v10.18h1.06Zm-6.78-1.3h-8.25v1.29h8.25v-1.29ZM202.67,136l-1.24.1v5.81h1.24V136Zm-1.47.12c-0.32,0-.61,0-0.91,0s-0.35.12-.35,0.39c0,1.67,0,3.34,0,5,0,0.11,0,.23,0,0.33h1.23V136.1Zm-1.51,7.13,0.12-7-1,.08v7h0.89Zm8.61,0v-0.9H200v0.9h8.32Zm-12.2-5v4.95h1.13V138.3H196.1Zm-5.78.1,2.08,0.33v-1.12c0-.85,0-0.85-0.82-1.11l-1.26-.4v2.3Zm14.14,3.49v-0.4q0-2.33,0-4.66c0-.58-0.06-0.64-0.68-0.61v5.66h0.68Zm-22.71-5.6a0.44,0.44,0,0,0-.51.53c0,2,0,4.08,0,6.12v0.39h0.5v-7Zm21.82,5.6c0-1.79,0-3.55,0-5.31,0-.53,0-0.53-0.55-0.55v5.87h0.55Zm-11.17-1.45c0-.48,0-0.92,0-1.35a0.25,0.25,0,0,0-.15-0.18l-1.9-.32v1.52Zm0,1.69c0-.48,0-0.91,0-1.34a0.28,0.28,0,0,0-.18-0.2c-0.62-.11-1.23-0.2-1.88-0.3v1.53Zm-9.86,1.2V143c0-2.06,0-4.12,0-6.19a0.39,0.39,0,0,0-.42-0.48v7h0.41Zm22.11-6.95v5.5h0.47v-5.4Zm-14.32,6.85h2.07c0-.25,0-0.47,0-0.7a0.3,0.3,0,0,0-.15-0.22c-0.63-.11-1.25-0.19-1.91-0.28v1.2Zm-9.36.07H181v-6.77c-0.31,0-.31.18-0.3,0.39,0,1.6,0,3.2,0,4.81a0.46,0.46,0,0,0,0,.27,0.71,0.71,0,0,1,.19.73C181,142.92,181,143.11,181,143.3Zm17,0c0-1.4,0-2.75,0-4.1a0.68,0.68,0,0,0-.42-0.65v4.82Zm-14.74-6.58-0.11,0a0.64,0.64,0,0,0,0,.13q0,3.13,0,6.26a0.64,0.64,0,0,0,.1.23,0.79,0.79,0,0,0,.12-0.28q0-3,0-6A1.24,1.24,0,0,0,183.26,136.7Zm1.86-3.91v-1.53c-0.33.1-.62,0.17-0.89,0.26a0.24,0.24,0,0,0-.13.17c0,0.41,0,.82,0,1.27Zm-2.26,3.75-0.11,0a1.16,1.16,0,0,0,0,.17q0,1.12,0,2.24c0,1.35,0,2.71,0,4.06a1,1,0,0,0,.12.31,1.15,1.15,0,0,0,.1-0.29c0-.25,0-0.5,0-0.75,0-1.8,0-3.61,0-5.41A1.46,1.46,0,0,0,182.86,136.54Zm0.78,0.31-0.12,0q0,3.13,0,6.27a0.48,0.48,0,0,0,.11.19,0.66,0.66,0,0,0,.12-0.24q0-3,0-6A1,1,0,0,0,183.64,136.85Zm1.87-5.58c0,0.33,0,.6,0,0.87,0,0.68,0,.68.68,0.85a0.33,0.33,0,0,0,.1,0v-1.53Zm-5.08,10.65,0.08,0v-5.17l-0.09,0a0.8,0.8,0,0,0-.11.27q0,2.33,0,4.66A0.92,0.92,0,0,0,180.43,141.92Zm3.63-4.86H184v6.28h0.06v-6.28Zm0.82-6.12h0.88l-0.48-1.12Z" transform="translate(-16.76 -7.01)"/><path class="cls-2" d="M178.57,139.11l-1.83.24A2.39,2.39,0,0,1,178.57,139.11Z" transform="translate(-16.76 -7.01)"/><path class="cls-2" d="M178.51,133.41a4.74,4.74,0,0,1-1.74.19A4.72,4.72,0,0,1,178.51,133.41Z" transform="translate(-16.76 -7.01)"/><path class="cls-2" d="M176.74,126l1.83-.24A2.41,2.41,0,0,1,176.74,126Z" transform="translate(-16.76 -7.01)"/><path class="cls-2" d="M178.56,126.92l-1.83.24A2.4,2.4,0,0,1,178.56,126.92Z" transform="translate(-16.76 -7.01)"/><path class="cls-2" d="M178.52,123.92a4.77,4.77,0,0,1-1.74.21A4.76,4.76,0,0,1,178.52,123.92Z" transform="translate(-16.76 -7.01)"/><path class="cls-2" d="M176.73,138.23l1.83-.24A2.4,2.4,0,0,1,176.73,138.23Z" transform="translate(-16.76 -7.01)"/><path class="cls-2" d="M178.53,137.23l-1.75.23,0-.17,1.74-.24Z" transform="translate(-16.76 -7.01)"/><path class="cls-2" d="M176.79,140.28a2.43,2.43,0,0,1,1.78-.24Z" transform="translate(-16.76 -7.01)"/><path class="cls-2" d="M176.77,125.11l1.8-.24A2.43,2.43,0,0,1,176.77,125.11Z" transform="translate(-16.76 -7.01)"/><path class="cls-2" d="M178.53,123l-1.74.23,0-.16,1.74-.25Z" transform="translate(-16.76 -7.01)"/><path class="cls-2" d="M176.76,127.93a11,11,0,0,1,1.75-.22l0,0.14-1.74.23Z" transform="translate(-16.76 -7.01)"/><path class="cls-2" d="M176.76,134.47l1.75-.23,0,0.17-1.74.23Z" transform="translate(-16.76 -7.01)"/><path class="cls-2" d="M178.53,128.79l-1.82.24A2.56,2.56,0,0,1,178.53,128.79Z" transform="translate(-16.76 -7.01)"/><path class="cls-2" d="M176.77,129.79l1.74-.23,0,0.17-1.74.24Z" transform="translate(-16.76 -7.01)"/><path class="cls-2" d="M176.77,122.17l1.74-.23,0,0.17-1.74.23Z" transform="translate(-16.76 -7.01)"/><path class="cls-2" d="M176.77,130.73l1.74-.23,0,0.17-1.74.24Z" transform="translate(-16.76 -7.01)"/><path class="cls-2" d="M178.53,136.3l-1.74.23,0-.16,1.74-.24Z" transform="translate(-16.76 -7.01)"/><path class="cls-2" d="M176.76,141l1.74-.23,0,0.17-1.74.24Z" transform="translate(-16.76 -7.01)"/><path class="cls-2" d="M176.77,132.59l1.74-.22,0,0.16-1.74.23Z" transform="translate(-16.76 -7.01)"/><path class="cls-2" d="M176.76,135.4l1.74-.22,0,0.16-1.74.23Z" transform="translate(-16.76 -7.01)"/><path class="cls-2" d="M176.77,131.65l1.74-.22,0,0.16-1.74.23Z" transform="translate(-16.76 -7.01)"/><path class="cls-2" d="M178.58,121.16l-1.8.23A2.59,2.59,0,0,1,178.58,121.16Z" transform="translate(-16.76 -7.01)"/><path class="cls-2" d="M189.19,129.68l-1.72.23,0-.16,1.72-.24Z" transform="translate(-16.76 -7.01)"/><path class="cls-2" d="M189.18,123.92l-1.72.24,0-.17,1.72-.25Z" transform="translate(-16.76 -7.01)"/><path class="cls-2" d="M187.41,122.12l1.78-.24A2.26,2.26,0,0,1,187.41,122.12Z" transform="translate(-16.76 -7.01)"/><path class="cls-2" d="M187.38,125l1.85-.25A2.49,2.49,0,0,1,187.38,125Z" transform="translate(-16.76 -7.01)"/><path class="cls-2" d="M189.24,126.85l-1.81.25A2.36,2.36,0,0,1,189.24,126.85Z" transform="translate(-16.76 -7.01)"/><path class="cls-2" d="M189.18,127.79l-1.76.24A2.34,2.34,0,0,1,189.18,127.79Z" transform="translate(-16.76 -7.01)"/><path class="cls-2" d="M189.18,125.92l-1.72.24,0-.13a13.27,13.27,0,0,1,1.71-.28Z" transform="translate(-16.76 -7.01)"/><path class="cls-2" d="M187.43,132.72a2.49,2.49,0,0,1,1.85-.25Z" transform="translate(-16.76 -7.01)"/><path class="cls-2" d="M189.16,122.82a2.22,2.22,0,0,1-1.74.23Z" transform="translate(-16.76 -7.01)"/><path class="cls-2" d="M187.45,130.67l1.76-.23a0.56,0.56,0,0,1-.14.19,12.8,12.8,0,0,1-1.62.18v-0.14Z" transform="translate(-16.76 -7.01)"/><path class="cls-2" d="M189.18,135.29l-1.72.24,0-.17,1.72-.24Z" transform="translate(-16.76 -7.01)"/><path class="cls-2" d="M189.18,128.73l-1.78.24a3.09,3.09,0,0,1,1.77-.34v0.09Z" transform="translate(-16.76 -7.01)"/><path class="cls-2" d="M189.18,121.11l-1.72.23,0-.16,1.72-.24Z" transform="translate(-16.76 -7.01)"/><path class="cls-2" d="M189.17,131.54l-1.72.22,0-.17,1.72-.22Z" transform="translate(-16.76 -7.01)"/><path class="cls-2" d="M189.19,133.42l-1.79.24A2.49,2.49,0,0,1,189.19,133.42Z" transform="translate(-16.76 -7.01)"/><path class="cls-2" d="M189.18,134.36l-1.72.22,0-.16,1.72-.23Z" transform="translate(-16.76 -7.01)"/><path class="cls-2" d="M182,124.11a2.31,2.31,0,0,1-1.8-.29Z" transform="translate(-16.76 -7.01)"/><path class="cls-2" d="M182,135.53l-1.79-.3,0-.17,1.79,0.3Z" transform="translate(-16.76 -7.01)"/><path class="cls-2" d="M182,123.34l-1.79-.3,0-.17,1.79,0.3Z" transform="translate(-16.76 -7.01)"/><path class="cls-2" d="M180.2,128.5l1.79,0.29,0,0.17-1.79-.28Z" transform="translate(-16.76 -7.01)"/><path class="cls-2" d="M180.2,127.57l1.79,0.29,0,0.17-1.79-.28Z" transform="translate(-16.76 -7.01)"/><path class="cls-2" d="M180.2,125.7a12.91,12.91,0,0,1,1.78.3l0,0.15-1.79-.29Z" transform="translate(-16.76 -7.01)"/><path class="cls-2" d="M182,125a2.37,2.37,0,0,1-1.84-.29Z" transform="translate(-16.76 -7.01)"/><path class="cls-2" d="M181.95,127.09l-1.78-.29,0-.17,1.79,0.28Z" transform="translate(-16.76 -7.01)"/><path class="cls-2" d="M180.2,133.19l1.78,0.29,0,0.16-1.78-.29Z" transform="translate(-16.76 -7.01)"/><path class="cls-2" d="M182,122.39l-1.79-.28,0-.16,1.79,0.28Z" transform="translate(-16.76 -7.01)"/><path class="cls-2" d="M180.2,134.12l1.79,0.29,0,0.16-1.79-.28Z" transform="translate(-16.76 -7.01)"/><path class="cls-2" d="M182,129.9l-1.79-.29,0-.16,1.79,0.29Z" transform="translate(-16.76 -7.01)"/><path class="cls-2" d="M180.14,130.38l1.84,0.29A2.46,2.46,0,0,1,180.14,130.38Z" transform="translate(-16.76 -7.01)"/><path class="cls-2" d="M182,132.53a2.38,2.38,0,0,1-1.81-.28Z" transform="translate(-16.76 -7.01)"/><path class="cls-2" d="M180.14,131.3l1.91,0.31A2.74,2.74,0,0,1,180.14,131.3Z" transform="translate(-16.76 -7.01)"/><path class="cls-2" d="M180.2,121L182,121.3l0,0.16-1.79-.28Z" transform="translate(-16.76 -7.01)"/><path class="cls-2" d="M192.72,123.27l-1.78-.29,0-.17,1.78,0.28Z" transform="translate(-16.76 -7.01)"/><path class="cls-2" d="M192.76,125.17l-1.85-.31A2.45,2.45,0,0,1,192.76,125.17Z" transform="translate(-16.76 -7.01)"/><path class="cls-2" d="M192.71,128l-1.77-.3,0-.17,1.77,0.29Z" transform="translate(-16.76 -7.01)"/><path class="cls-2" d="M192.71,127l-1.83-.31a3.32,3.32,0,0,1,1.85.22Z" transform="translate(-16.76 -7.01)"/><path class="cls-2" d="M191,125.63l1.77,0.3,0,0.17-1.77-.3Z" transform="translate(-16.76 -7.01)"/><path class="cls-2" d="M192.75,124.23l-1.82-.31A2.31,2.31,0,0,1,192.75,124.23Z" transform="translate(-16.76 -7.01)"/><path class="cls-2" d="M191,121.88l1.77,0.29,0,0.17-1.77-.28Z" transform="translate(-16.76 -7.01)"/><path class="cls-2" d="M192.79,131.53a3,3,0,0,1-1.83-.16v-0.1Z" transform="translate(-16.76 -7.01)"/><path class="cls-2" d="M192.7,132.64l-1.76-.28,0-.17,1.77,0.28Z" transform="translate(-16.76 -7.01)"/><path class="cls-2" d="M191,120.95l1.77,0.29,0,0.16-1.77-.28Z" transform="translate(-16.76 -7.01)"/><path class="cls-2" d="M192.71,128.9l-1.77-.3,0-.16,1.78,0.28Z" transform="translate(-16.76 -7.01)"/><path class="cls-2" d="M192.71,129.84l-1.77-.29,0-.16,1.77,0.28Z" transform="translate(-16.76 -7.01)"/><path class="cls-2" d="M192.75,130.61a2.47,2.47,0,0,1-1.8-.25l0.85,0.09Z" transform="translate(-16.76 -7.01)"/><path class="cls-2" d="M172,138.1l-1.23.12,0-.16,1.23-.14Z" transform="translate(-16.76 -7.01)"/><path class="cls-2" d="M170.83,135.23l1.27-.1A1.24,1.24,0,0,1,170.83,135.23Z" transform="translate(-16.76 -7.01)"/><path class="cls-2" d="M172,138.8l-1.23.12,0-.16,1.23-.13Z" transform="translate(-16.76 -7.01)"/><path class="cls-2" d="M172,140.92l-1.25.09v-0.16l1.25-.1v0.17Z" transform="translate(-16.76 -7.01)"/><path class="cls-2" d="M170.86,137.38a7.86,7.86,0,0,1,1.25-.16v0.18l-1.25.11v-0.13Z" transform="translate(-16.76 -7.01)"/><path class="cls-2" d="M172.11,135.83a1.41,1.41,0,0,1-1.33.11Z" transform="translate(-16.76 -7.01)"/><path class="cls-2" d="M170.71,140.16L172,140A1.31,1.31,0,0,1,170.71,140.16Z" transform="translate(-16.76 -7.01)"/><path class="cls-2" d="M170.74,139.46l1.23-.12,0,0.16-1.22.12Z" transform="translate(-16.76 -7.01)"/><path class="cls-2" d="M170.85,136.64l1.25-.09v0.15l-1.25.11v-0.17Z" transform="translate(-16.76 -7.01)"/><path class="cls-2" d="M174.8,139l-1.2-.22,0-.17,1.2,0.23Z" transform="translate(-16.76 -7.01)"/><path class="cls-2" d="M173.63,137.92l1.21,0.25,0,0.1A1.35,1.35,0,0,1,173.63,137.92Z" transform="translate(-16.76 -7.01)"/><path class="cls-2" d="M173.65,137.23l1.19,0.24,0,0.15-1.2-.24Z" transform="translate(-16.76 -7.01)"/><path class="cls-2" d="M174.8,135.52l-1.2-.22,0-.17,1.2,0.23Z" transform="translate(-16.76 -7.01)"/><path class="cls-2" d="M173.64,140.75l1.2,0.22,0,0.17-1.2-.23Z" transform="translate(-16.76 -7.01)"/><path class="cls-2" d="M174.8,140.44l-1.2-.22,0-.17,1.2,0.22Z" transform="translate(-16.76 -7.01)"/><path class="cls-2" d="M174.8,136.23l-1.2-.24,0-.13a5.06,5.06,0,0,1,1.2.21Z" transform="translate(-16.76 -7.01)"/><path class="cls-2" d="M173.64,136.54l1.2,0.21,0,0.17-1.19-.23Z" transform="translate(-16.76 -7.01)"/><path class="cls-2" d="M174.8,139.73l-1.2-.22,0-.17,1.19,0.23Z" transform="translate(-16.76 -7.01)"/><path class="cls-2" d="M194.6,136.64a2.33,2.33,0,0,1,1.19.3A2.18,2.18,0,0,1,194.6,136.64Z" transform="translate(-16.76 -7.01)"/><path class="cls-2" d="M195.76,136.29l-1.2-.24,0-.16,1.2,0.22Z" transform="translate(-16.76 -7.01)"/><path class="cls-2" d="M194.63,135.17l1.18,0.25,0,0.15-1.2-.24Z" transform="translate(-16.76 -7.01)"/><path class="cls-2" d="M194.58,137.29l1.22,0.25A1.19,1.19,0,0,1,194.58,137.29Z" transform="translate(-16.76 -7.01)"/><path class="cls-2" d="M192.86,136l-1.27.11v-0.16l1.27-.11V136Z" transform="translate(-16.76 -7.01)"/><path class="cls-2" d="M192.93,135.41l-1.39.12A1.47,1.47,0,0,1,192.93,135.41Z" transform="translate(-16.76 -7.01)"/><path class="cls-2" d="M172,142.31a43.38,43.38,0,0,1,7.44,0H172Z" transform="translate(-16.76 -7.01)"/><path class="cls-2" d="M207.74,142.6h-7.42A45.12,45.12,0,0,1,207.74,142.6Z" transform="translate(-16.76 -7.01)"/><path class="cls-2" d="M187,156.31l0.13,0a0.9,0.9,0,0,1,.42,1.46,0.4,0.4,0,0,0-.09.24q0,9.09,0,18.18v0.17h15.67l-0.13.12a39.43,39.43,0,0,1-9.74,5.27,21.54,21.54,0,0,1-4,1.05,12.93,12.93,0,0,1-3.31.14,5.88,5.88,0,0,1-2.09-.7,16.43,16.43,0,0,1-3.29-2.35,31.93,31.93,0,0,1-3.27-3.37l-0.13-.16h9.21v-0.21q0-9.06,0-18.13a0.36,0.36,0,0,0-.08-0.23,0.89,0.89,0,0,1,.44-1.51l0.06,0H187Z" transform="translate(-16.76 -7.01)"/><path class="cls-2" d="M201.2,174.9H188.13l0.06-.12a10.22,10.22,0,0,0,1.14-3.64,23,23,0,0,0,.08-5c-0.14-1.84-.41-3.67-0.73-5.49-0.17-1-.35-1.9-0.52-2.85,0,0,0-.07,0-0.14A45,45,0,0,1,201.2,174.9Z" transform="translate(-16.76 -7.01)"/><path class="cls-2" d="M185.67,163.61v11.3h-8.8l0.13-.14,2.91-2.51a22.66,22.66,0,0,0,3.19-3.17,12.92,12.92,0,0,0,2.5-5.31l0-.08,0-.1h0Z" transform="translate(-16.76 -7.01)"/><path class="cls-2" d="M124.3,116.39l0.13,0a0.9,0.9,0,0,1,.42,1.46,0.4,0.4,0,0,0-.09.24q0,9.09,0,18.18v0.17h15.67l-0.13.12a39.43,39.43,0,0,1-9.74,5.27,21.54,21.54,0,0,1-4,1.05,12.93,12.93,0,0,1-3.31.14,5.88,5.88,0,0,1-2.09-.7,16.43,16.43,0,0,1-3.29-2.35,31.93,31.93,0,0,1-3.27-3.37l-0.13-.16h9.21v-0.21q0-9.06,0-18.13a0.36,0.36,0,0,0-.08-0.23,0.89,0.89,0,0,1,.44-1.51l0.06,0h0.24Z" transform="translate(-16.76 -7.01)"/><path class="cls-2" d="M138.5,135H125.43l0.06-.12a10.22,10.22,0,0,0,1.14-3.64,23,23,0,0,0,.08-5c-0.14-1.84-.41-3.67-0.73-5.49-0.17-1-.35-1.9-0.52-2.85,0,0,0-.07,0-0.14A45,45,0,0,1,138.5,135Z" transform="translate(-16.76 -7.01)"/><path class="cls-2" d="M123,123.69V135h-8.8l0.13-.14,2.91-2.51a22.66,22.66,0,0,0,3.19-3.17,12.92,12.92,0,0,0,2.5-5.31l0-.08,0-.1h0Z" transform="translate(-16.76 -7.01)"/><path class="cls-2" d="M41.82,79.53q-1,1.5-1.88,3L55.29,92.79q-0.9,1.52-1.76,3.09L37.78,86.35q-0.87,1.59-1.69,3.24l-4.78-2.66a117.81,117.81,0,0,1,6-10.61Z" transform="translate(-16.76 -7.01)"/><path class="cls-2" d="M60.17,80.71q-1.5,1.86-2.91,3.82,0.95,1.17,1.91,2.32-1.05,1.48-2.06,3a222.61,222.61,0,0,1-15.6-19.44q1.23-1.68,2.51-3.29A212.53,212.53,0,0,1,65,79.53q-1.16,1.31-2.29,2.68Zm-4.85-2.78q-2.58-1.42-5.2-2.77Q51.9,77.62,53.73,80,54.52,79,55.33,77.93Z" transform="translate(-16.76 -7.01)"/><path class="cls-2" d="M61.43,65.84a87.25,87.25,0,0,1,13.32,4.39q-1.8,1.45-3.54,3a85.43,85.43,0,0,0-8.4-2.49l5.11,5.63q-1.15,1.17-2.27,2.39L48.75,61.54q1.44-1.58,2.92-3.08l5.13,5.66q-0.63-4.79-.88-9.73,2.22-2,4.53-3.87A118.65,118.65,0,0,0,61.43,65.84Z" transform="translate(-16.76 -7.01)"/><path class="cls-2" d="M66.72,52.8l2.05,3.06q2.18-1.62,4.42-3.1l2.88,4.83Q74,59,71.9,60.51L74,63.7q2.43-1.81,5-3.42l2.82,4.86a79.7,79.7,0,0,0-7.17,5.16L60.37,50.69A102.62,102.62,0,0,1,69.57,44l2.82,4.86Q69.5,50.73,66.72,52.8Z" transform="translate(-16.76 -7.01)"/><path class="cls-2" d="M92.81,33q4,11.65,7.82,23.37-1.46.46-2.9,1Q96,52.62,94.24,47.91,94.86,53,95.68,58.1q-1.43.56-2.85,1.17Q90,54.82,87,50.49q1.85,4.89,3.75,9.75-1.41.66-2.79,1.38Q83,50.34,78.39,38.95q1.83-.93,3.7-1.78,4.68,6.31,8.91,12.9-1.26-7.81-2-15.74Q90.88,33.62,92.81,33Z" transform="translate(-16.76 -7.01)"/><path class="cls-2" d="M99.78,36.88l0.88,3.62q2.52-.66,5.06-1.18l1.05,5.58q-2.4.49-4.77,1.12l0.92,3.78q2.81-.74,5.65-1.28l1,5.59a79.34,79.34,0,0,0-8.24,2L94.67,32.47a102.1,102.1,0,0,1,10.59-2.66l1,5.59Q103,36,99.78,36.88Z" transform="translate(-16.76 -7.01)"/><path class="cls-2" d="M124.71,52.69q-0.26-1.5-.53-3-2.14,0-4.28.13-0.2,1.51-.38,3-1.6.1-3.2,0.27a248.21,248.21,0,0,1,3.39-25Q121.56,28,123.4,28q2.86,12.32,4.5,24.76Q126.3,52.7,124.71,52.69Zm-4-8.6q1.17-.05,2.35-0.07-0.62-3-1.31-6Q121.23,41.07,120.74,44.09Z" transform="translate(-16.76 -7.01)"/><path class="cls-2" d="M143.32,29.73L139.13,54q-1.62-.3-3.24-0.54-1.18-7.44-3.09-14.85L131.62,53q-1.51-.13-3-0.21l1.16-24.6q2.12,0.11,4.23.3,2.13,7.41,3.54,14.88l1.95-14.29Q141.4,29.37,143.32,29.73Z" transform="translate(-16.76 -7.01)"/><path class="cls-2" d="M145.78,48.35q-0.33-9.3-1.6-18.67,2.13,0.41,4.24.92,0.55,5.64.76,11.25,2.63-4.83,5.52-9.54,2,0.63,4.05,1.34a202.9,202.9,0,0,0-12.86,21.94q-1.59-.44-3.2-0.82Q144.17,51.55,145.78,48.35Z" transform="translate(-16.76 -7.01)"/><path class="cls-2" d="M180.05,44.19q-8.4,9.19-15.87,19.1-1.34-.77-2.7-1.49,1.87-6,3.5-12-3.33,5.2-6.47,10.52-1.39-.66-2.8-1.26,2.46-12.39,3.68-25.13,2,0.71,3.89,1.5-0.93,7-2.23,13.92,3.46-5.94,7.16-11.75,1.77,0.84,3.51,1.74-1.78,6.73-3.84,13.34Q172,47.22,176.45,42,178.27,43,180.05,44.19Z" transform="translate(-16.76 -7.01)"/><path class="cls-2" d="M190.48,52.13L175.79,71.45q-1.23-1-2.49-2l5.28-7.51q-1.75-1.36-3.55-2.63l-4.93,7.77q-1.3-.91-2.62-1.76l12.31-21.09q1.7,1.1,3.37,2.26L178,54.55q1.91,1.34,3.76,2.78l5.49-7.81Q188.9,50.79,190.48,52.13Z" transform="translate(-16.76 -7.01)"/><path class="cls-2" d="M191.31,60.35l-2.37,2.79q2,1.91,3.95,4l-3.83,4q-1.82-1.94-3.73-3.75l-2.48,2.91q2.25,2.13,4.38,4.47l-3.88,4a81.75,81.75,0,0,0-6.51-6.37l15-19a105.05,105.05,0,0,1,8.39,8.17l-3.88,4Q193.89,62.79,191.31,60.35Z" transform="translate(-16.76 -7.01)"/><path class="cls-2" d="M191.93,79.23a4.88,4.88,0,0,1-.42-0.37l-0.41-.41-4.49,4.07q-1.06-1.31-2.16-2.56l17.11-16.81q1.41,1.61,2.78,3.29a6.77,6.77,0,0,1,1.31,2.88,8.33,8.33,0,0,1,0,3.21,9.06,9.06,0,0,1-1.23,3.08,10,10,0,0,1-2.36,2.58,10.62,10.62,0,0,1-3.14,1.72,8.93,8.93,0,0,1-3.15.5q-2.23,4.17-4.71,8.12-1.14-1.69-2.34-3.3Q190.39,82.28,191.93,79.23Zm3.29-4.52a2.92,2.92,0,0,0,1,.71,3.23,3.23,0,0,0,2.38.14,3.32,3.32,0,0,0,1.13-.64,3.29,3.29,0,0,0,.82-1,3.61,3.61,0,0,0,.37-1.24,3.74,3.74,0,0,0-.09-1.31,3.38,3.38,0,0,0-.55-1.19Z" transform="translate(-16.76 -7.01)"/><path class="cls-2" d="M209.13,82.78l-3,2q1.54,2.6,3,5.33l-4.74,2.73q-1.34-2.58-2.8-5l-3.14,2.08q1.72,2.9,3.28,6l-4.78,2.66a91.37,91.37,0,0,0-4.92-8.6l19.31-14a117.38,117.38,0,0,1,6.36,11l-4.78,2.66Q211.1,86.1,209.13,82.78Z" transform="translate(-16.76 -7.01)"/><rect class="cls-3" x="20.26" y="106.75" width="52.38" height="113.23" rx="12" ry="12"/><rect class="cls-3" x="82.18" y="106.75" width="52.38" height="113.23" rx="12" ry="12"/><rect class="cls-3" x="144.11" y="106.75" width="52.38" height="113.23" rx="12" ry="12"/><polyline class="cls-4" points="255.54 71.51 255.54 161.08 239.97 161.08"/><polyline class="cls-4" points="239.97 150.11 244.57 150.11 244.57 71.51"/><circle class="cls-4" cx="249.69" cy="58.51" r="14.11"/><rect class="cls-4" x="216.94" y="136.99" width="14.26" height="40.38"/><rect class="cls-4" x="231.2" y="144.54" width="8.77" height="24.84"/><rect class="cls-5" x="127.74" y="237.17" width="67.42" height="7.95"/><path class="cls-6" d="M201.23,247.66v41.63c0,2.26-3,4.12-6.58,4.12H161.75c-3.62,0-6.58-1.85-6.58-4.12V247.66" transform="translate(-16.76 -7.01)"/><circle class="cls-4" cx="46.41" cy="246.4" r="13.44"/><circle class="cls-4" cx="90.43" cy="246.4" r="13.44"/></svg>